<?xml version="1.0" encoding="iso-8859-1"?>
<!-- Uploaded to: SVG Repo, www.svgrepo.com, Generator: SVG Repo Mixer Tools -->
<svg height="800px" width="800px" version="1.1" id="Layer_1" xmlns="http://www.w3.org/2000/svg" xmlns:xlink="http://www.w3.org/1999/xlink" 
	 viewBox="0 0 305.708 305.708" xml:space="preserve">
<g>
	<path style="fill:#28D2E4;" d="M229.116,205.206c0-19.079,15.467-34.546,34.546-34.546c7.75,0,14.904,2.552,20.667,6.861V23.714
		H7.5v198.815h226.278C230.819,217.436,229.116,211.521,229.116,205.206z"/>
	<circle style="fill:#FFDB77;" cx="263.662" cy="205.206" r="34.546"/>
	<g>
		<path style="fill:#13829B;" d="M263.662,239.752c-8.803,0-16.832-3.298-22.932-8.718v50.955l22.932-22.932l22.932,22.932v-50.955
			C280.493,236.454,272.465,239.752,263.662,239.752z"/>
		<g>
			<path style="fill:#22313F;" d="M43.898,157.583h204.035c4.143,0,7.5-3.358,7.5-7.5s-3.357-7.5-7.5-7.5H43.898
				c-4.142,0-7.5,3.358-7.5,7.5C36.398,154.226,39.756,157.583,43.898,157.583z"/>
			<path style="fill:#22313F;" d="M201.48,176.685H43.898c-4.142,0-7.5,3.358-7.5,7.5s3.358,7.5,7.5,7.5H201.48
				c4.143,0,7.5-3.358,7.5-7.5C208.98,180.042,205.623,176.685,201.48,176.685z"/>
			<path style="fill:#22313F;" d="M96.817,118.618h98.195c4.143,0,7.5-3.358,7.5-7.5V60.279c0-4.142-3.357-7.5-7.5-7.5H96.817
				c-4.142,0-7.5,3.358-7.5,7.5v50.839C89.317,115.26,92.675,118.618,96.817,118.618z M104.317,67.779h83.195v35.839h-83.195
				C104.317,103.618,104.317,67.779,104.317,67.779z"/>
			<path style="fill:#22313F;" d="M291.83,174.02V23.714c0-4.142-3.357-7.5-7.5-7.5H7.5c-4.142,0-7.5,3.358-7.5,7.5v198.815
				c0,4.142,3.358,7.5,7.5,7.5h222.255c1.069,1.456,2.232,2.838,3.475,4.144v47.816c0,6.686,8.11,9.994,12.804,5.303l17.628-17.629
				l17.629,17.629c4.707,4.705,12.804,1.375,12.804-5.303v-47.816C310.385,217.066,309.453,189.953,291.83,174.02z M263.662,232.252
				c-14.988,0-27.045-12.23-27.045-27.046c0-14.91,12.13-27.045,27.045-27.045c14.944,0,27.046,12.172,27.046,27.045
				C290.707,220.15,278.544,232.252,263.662,232.252z M222.782,215.029H15V31.214h261.83v134.041
				C245.702,155.008,215.06,182.997,222.782,215.029z M279.094,263.882l-10.129-10.129c-2.928-2.927-7.677-2.929-10.607,0
				l-10.128,10.128v-19.563c9.861,3.893,20.995,3.894,30.864,0V263.882z"/>
		</g>
	</g>
</g>
</svg>